<?xml version="1.0" standalone="no"?>
<!DOCTYPE svg PUBLIC "-//W3C//DTD SVG 20010904//EN"
 "http://www.w3.org/TR/2001/REC-SVG-20010904/DTD/svg10.dtd">
<svg version="1.0" xmlns="http://www.w3.org/2000/svg"
 width="478.000000pt" height="478.000000pt" viewBox="0 0 478.000000 478.000000"
 preserveAspectRatio="xMidYMid meet">
<metadata>
Created by potrace 1.11, written by Peter Selinger 2001-2013
</metadata>
<g transform="translate(0.000000,478.000000) scale(0.100000,-0.100000)"
fill="#000000" stroke="none">
<path d="M2010 3448 c-36 -4 -85 -10 -110 -12 -25 -2 -56 -7 -70 -10 -14 -3
-36 -8 -50 -10 -14 -2 -45 -11 -70 -19 -25 -8 -63 -19 -85 -25 -22 -7 -63 -19
-91 -28 -28 -8 -57 -17 -65 -18 -8 -1 -39 -10 -69 -19 -30 -9 -59 -18 -65 -18
-5 -1 -21 -6 -35 -11 -14 -5 -32 -11 -40 -13 -8 -2 -94 -27 -190 -55 -96 -28
-197 -57 -225 -65 -27 -7 -63 -19 -80 -25 -16 -6 -32 -11 -35 -11 -3 1 -30 -7
-60 -16 -30 -9 -61 -17 -68 -19 -11 -2 -152 -44 -217 -64 -39 -12 -277 -80
-335 -95 -42 -11 -45 -14 -48 -50 -3 -33 -1 -37 15 -30 10 4 32 11 48 16 17 4
46 12 65 18 19 5 62 17 95 26 33 9 83 23 110 31 28 9 60 17 71 19 12 2 30 8
41 14 11 5 23 8 25 6 3 -3 21 2 41 10 21 8 37 13 37 10 0 -3 8 -1 19 4 10 6
32 13 50 16 17 3 50 11 74 19 84 26 428 122 472 131 145 30 372 29 501 -1 38
-9 76 -17 84 -19 64 -14 188 -68 305 -135 81 -46 223 -155 214 -165 -3 -2 -18
7 -33 20 -16 14 -33 25 -37 25 -4 0 -14 6 -21 13 -52 51 -287 161 -413 193
-16 4 -32 8 -35 9 -24 6 -78 19 -90 20 -8 1 -40 5 -70 9 -165 21 -324 8 -481
-40 -46 -13 -93 -26 -104 -28 -11 -2 -45 -10 -75 -19 -30 -9 -80 -23 -110 -31
-30 -8 -91 -24 -135 -36 -44 -12 -87 -23 -95 -25 -17 -4 -88 -24 -292 -79
-137 -38 -175 -48 -197 -52 -13 -3 -34 -10 -45 -16 -12 -6 -23 -9 -26 -7 -3 2
-6 -63 -8 -144 l-3 -149 28 6 c16 4 39 9 53 11 46 10 125 27 160 35 85 19 148
33 185 39 23 4 46 11 53 15 9 5 12 -49 12 -243 l0 -249 -67 -7 c-38 -4 -77 -9
-88 -11 -18 -4 -60 -9 -235 -29 -104 -12 -100 -9 -100 -70 l0 -55 68 5 c37 3
78 7 92 10 14 3 54 7 90 10 36 3 81 7 100 10 19 3 62 7 95 10 33 2 76 7 95 10
19 3 67 7 105 10 39 3 77 7 85 10 8 2 53 7 99 10 47 3 87 8 91 10 3 2 31 5 61
6 30 1 77 5 104 10 28 4 82 11 120 14 39 3 111 10 160 16 115 14 602 20 675 9
30 -5 80 -11 110 -14 57 -6 135 -18 230 -35 54 -10 77 -15 132 -27 15 -3 29
-5 30 -4 2 1 15 -3 31 -9 15 -6 38 -13 50 -15 12 -3 47 -12 77 -21 30 -8 62
-17 70 -19 8 -2 51 -19 95 -36 123 -50 308 -113 440 -150 78 -22 193 -51 225
-56 19 -3 53 -10 75 -15 49 -11 714 -9 764 2 19 4 37 6 40 4 2 -3 -4 -24 -13
-49 -17 -43 -17 -44 -77 -50 -113 -13 -568 -7 -699 8 -198 24 -210 26 -237 37
-14 5 -28 7 -31 5 -2 -3 -12 -1 -22 4 -9 5 -28 11 -41 14 -13 2 -58 15 -99 29
-142 46 -300 92 -360 103 -14 3 -34 8 -45 11 -11 4 -24 8 -30 9 -5 1 -41 10
-80 19 -38 9 -79 18 -90 21 -11 2 -40 8 -65 13 -134 28 -241 46 -370 63 -126
16 -704 17 -900 2 -91 -8 -237 -18 -325 -24 -88 -6 -221 -15 -295 -20 -74 -5
-169 -12 -210 -15 -41 -3 -100 -7 -130 -10 -30 -3 -93 -8 -140 -10 -47 -3
-100 -8 -117 -11 l-33 -5 0 -214 0 -215 1116 0 1115 0 47 -46 c66 -65 178
-137 260 -168 68 -26 70 -28 82 -72 7 -25 18 -47 24 -49 6 -2 365 -6 798 -8
433 -3 791 -7 795 -10 5 -3 70 -8 144 -11 74 -3 157 -8 184 -11 123 -14 215
-14 215 0 0 9 -22 15 -72 20 -88 8 -138 13 -198 20 -25 3 -76 7 -115 10 -38 3
-86 7 -105 9 -19 3 -69 7 -110 11 -102 8 -107 10 -108 46 -1 40 -4 42 -57 43
-45 0 -65 15 -22 17 94 3 224 66 319 153 45 43 138 181 138 207 0 5 -24 -15
-52 -44 -29 -29 -66 -59 -83 -66 -41 -18 -134 -40 -165 -40 -14 1 3 7 37 15
129 28 226 105 254 201 22 75 17 215 -11 293 -12 36 -27 71 -32 78 -6 6 -8 12
-5 12 12 0 -98 208 -162 305 -137 210 -253 349 -480 575 -204 203 -295 273
-466 356 -55 26 -104 49 -110 50 -5 2 -50 17 -100 35 -49 17 -112 37 -140 44
-52 13 -83 19 -193 40 -18 3 -57 8 -85 11 -29 2 -59 7 -67 11 -23 9 -507 10
-580 1z m895 -133 c207 -43 377 -115 554 -234 182 -122 365 -296 485 -459 32
-44 34 -51 19 -57 -41 -16 -272 -24 -426 -15 -158 10 -195 13 -287 27 -25 4
-52 8 -60 8 -8 1 -35 6 -60 10 -25 5 -49 10 -55 10 -9 1 -90 16 -105 20 -3 1
-25 5 -50 10 -25 5 -48 10 -52 11 -5 1 -11 2 -16 3 -4 0 -35 36 -70 79 -87
109 -337 350 -425 411 -12 8 -31 24 -42 34 -11 10 -39 32 -62 48 -44 30 -53
45 -30 47 6 0 55 12 107 26 52 14 121 28 155 32 33 3 62 8 65 11 10 10 280 -6
355 -22z m-1395 -539 c117 -18 275 -108 400 -228 82 -78 196 -223 183 -231 -5
-3 -40 -8 -78 -11 -39 -4 -77 -9 -85 -11 -8 -2 -37 -7 -65 -10 -27 -3 -68 -7
-90 -10 -46 -6 -78 -10 -195 -25 -94 -11 -214 -26 -275 -35 -185 -25 -270 -33
-275 -25 -3 4 -5 124 -5 266 l0 258 30 8 c38 11 122 29 158 34 16 2 32 6 37 9
5 3 28 8 52 11 24 4 45 8 48 11 5 5 103 -2 160 -11z m2070 -606 c55 -54 100
-102 100 -105 0 -4 -51 35 -135 104 -101 83 -98 81 -184 81 -45 0 -81 -2 -81
-5 0 -3 57 -61 126 -130 l126 -125 62 -1 c49 -1 55 -3 31 -9 -74 -19 -105 -12
-155 33 -41 37 -114 103 -244 219 l-41 37 148 1 147 0 100 -100z m667 83 c3
-10 14 -36 23 -58 34 -76 52 -120 65 -155 l13 -36 -42 -1 c-36 -1 -38 0 -16 8
32 13 35 16 23 31 -6 7 -22 45 -36 83 -45 125 -45 125 -94 125 l-43 0 6 -42
c4 -24 11 -53 15 -66 10 -25 12 -48 4 -40 -8 7 -55 141 -55 155 0 9 20 13 65
13 54 0 67 -3 72 -17z m-536 -210 c13 -16 12 -17 -3 -4 -17 13 -22 21 -14 21
2 0 10 -8 17 -17z m-24 -59 c-3 -3 -12 -4 -19 -1 -8 3 -5 6 6 6 11 1 17 -2 13
-5z m-1650 -320 c-3 -3 -12 -4 -19 -1 -8 3 -5 6 6 6 11 1 17 -2 13 -5z m119
-10 c33 -4 61 -8 64 -9 3 -1 25 -5 50 -9 45 -8 165 -38 230 -57 50 -15 234
-87 300 -116 81 -37 161 -72 180 -78 3 -1 16 -6 30 -12 110 -44 302 -99 465
-132 l50 -10 -55 4 c-122 11 -295 46 -410 85 -36 12 -73 23 -82 25 -9 2 -25 8
-35 13 -10 6 -20 10 -23 10 -7 1 -35 12 -240 94 -235 96 -224 91 -230 93 -3 0
-41 13 -85 27 -70 23 -134 40 -150 39 -2 0 -19 5 -37 10 -18 5 -51 12 -73 15
-22 3 -44 10 -50 15 -7 7 -1 9 16 5 15 -2 53 -8 85 -12z m1420 -432 c-16 -2
-32 0 -37 5 -5 5 7 7 29 4 34 -5 35 -6 8 -9z"/>
<path d="M1615 2481 c-3 -5 2 -11 10 -15 8 -3 17 -1 20 3 3 5 -2 11 -10 15 -8
3 -17 1 -20 -3z"/>
<path d="M0 1214 l0 -152 53 -6 c29 -4 91 -9 138 -11 46 -2 111 -7 144 -10 33
-3 101 -8 150 -10 50 -2 113 -7 140 -10 28 -3 97 -7 155 -10 58 -3 116 -7 130
-10 14 -2 83 -7 155 -10 71 -4 132 -8 135 -10 4 -2 40 -4 81 -5 41 -1 112 -6
159 -11 47 -5 128 -11 180 -14 52 -2 160 -9 240 -15 236 -16 450 -30 530 -35
41 -2 102 -7 135 -10 33 -3 101 -8 150 -10 50 -2 115 -7 145 -10 30 -3 93 -8
140 -10 47 -2 110 -7 140 -10 30 -3 98 -8 150 -10 52 -2 115 -7 140 -10 25 -3
92 -7 150 -10 58 -3 123 -7 145 -10 22 -3 86 -7 143 -10 56 -3 132 -7 167 -10
36 -3 94 -7 129 -10 36 -2 107 -7 158 -10 51 -3 119 -8 150 -11 32 -3 99 -7
150 -9 51 -3 117 -7 147 -11 34 -4 51 -2 47 4 -3 6 -34 13 -68 17 -35 3 -85
10 -113 15 -27 5 -72 11 -100 14 -101 12 -197 24 -233 31 -10 1 -48 6 -87 11
-38 4 -72 8 -75 9 -7 2 -132 19 -150 20 -8 1 -40 5 -70 10 -30 5 -64 9 -75 10
-11 0 -42 4 -70 8 -27 5 -66 10 -85 12 -42 5 -169 21 -265 35 -38 5 -104 14
-145 19 -41 6 -111 15 -155 21 -44 6 -98 13 -120 15 -22 2 -58 7 -80 11 -22 4
-51 8 -65 9 -14 1 -50 6 -80 11 -30 4 -62 8 -70 9 -8 1 -43 5 -76 9 l-62 8
-12 59 c-9 40 -17 58 -25 55 -7 -2 -23 3 -36 12 -13 9 -26 16 -29 16 -19 -5
-145 80 -201 134 -20 20 -38 27 -70 27 -129 4 -1505 19 -1807 19 l-352 1 0
-151z m2091 86 c29 -16 61 -87 62 -139 0 -56 -26 -114 -63 -141 -42 -30 -46
-24 -11 15 66 76 63 193 -7 252 -28 23 -16 31 19 13z m-71 -139 c0 -26 -21
-43 -37 -30 -16 14 -17 41 -1 57 14 14 38 -2 38 -27z"/>
</g>
</svg>
