<?xml version="1.0" standalone="no"?>
<!DOCTYPE svg PUBLIC "-//W3C//DTD SVG 20010904//EN"
 "http://www.w3.org/TR/2001/REC-SVG-20010904/DTD/svg10.dtd">
<svg version="1.0" xmlns="http://www.w3.org/2000/svg"
 width="16.000000pt" height="16.000000pt" viewBox="0 0 16.000000 16.000000"
 preserveAspectRatio="xMidYMid meet">
<metadata>
Created by potrace 1.11, written by Peter Selinger 2001-2013
</metadata>
<g transform="translate(0.000000,16.000000) scale(0.003774,-0.003774)"
fill="#000000" stroke="none">
<path d="M1437 4035 c-230 -57 -410 -248 -457 -485 -4 -25 -21 -472 -36 -995
-20 -721 -24 -965 -16 -1013 12 -75 66 -194 111 -244 42 -48 48 -67 86 -286
l32 -187 -73 -209 c-41 -115 -74 -214 -74 -221 0 -7 51 -31 115 -54 179 -63
155 -72 204 71 24 68 47 127 51 132 5 4 30 1 57 -8 44 -15 122 -16 729 -13
373 2 691 7 705 11 26 8 27 6 69 -119 41 -118 45 -126 66 -121 13 4 76 25 142
49 l120 42 -95 270 -95 270 11 85 c22 159 41 233 69 268 51 63 93 137 112 201
26 83 26 132 -5 1191 -19 665 -28 869 -40 915 -50 198 -200 361 -402 438 -57
21 -65 22 -693 24 -520 1 -645 -1 -693 -12z m1213 -270 l0 -95 -525 0 -525 0
0 95 0 95 525 0 525 0 0 -95z m253 -288 c86 -51 88 -58 104 -464 14 -344 14
-353 -5 -396 -11 -24 -37 -57 -57 -73 -37 -28 -41 -29 -214 -36 -97 -5 -444
-7 -771 -6 -572 3 -597 4 -634 23 -22 11 -54 37 -70 59 l-31 38 2 217 c2 119
7 289 11 378 8 151 10 165 35 202 40 60 76 75 192 82 55 4 390 6 745 5 l645
-1 48 -28z m-1347 -1572 c45 -19 112 -82 137 -129 17 -32 22 -58 22 -116 0
-90 -21 -135 -88 -197 -166 -153 -439 -31 -439 196 0 189 194 319 368 246z
m1314 -6 c96 -41 153 -130 153 -239 0 -77 -17 -122 -67 -178 -107 -119 -289
-116 -396 5 -40 46 -70 120 -70 173 0 53 30 127 70 172 82 94 192 118 310 67z
m-564 -463 c85 -27 149 -63 212 -120 42 -38 98 -113 90 -121 -2 -3 -60 7 -129
21 -98 20 -165 27 -319 31 -199 6 -312 -5 -475 -43 -84 -19 -88 -19 -74 8 22
41 104 121 162 159 58 38 143 71 228 89 72 15 216 4 305 -24z m532 -731 c7
-14 12 -27 12 -28 0 -1 -303 -1 -672 1 -477 2 -684 0 -711 -8 -22 -6 -41 -10
-43 -7 -2 2 1 18 7 35 l11 32 692 0 693 0 11 -25z"/>
</g>
</svg>
